<svg width="2048" height="2048" version="1.1" xmlns="http://www.w3.org/2000/svg" desc="Created with imagetracer.js version 1.2.6" ><path fill="rgb(0,0,0)" stroke="rgb(0,0,0)" stroke-width="1" opacity="0" d="M 0 0 L 2048 0 L 2048 2048 L 0 2048 L 0 0 Z M 990 85 L 989 86 L 954 87 L 953 88 L 942 88 L 941 89 L 931 89 L 930 90 L 913 91 L 912 92 L 904 92 L 876 97 L 870 97 L 864 99 L 853 100 L 823 106 L 782 116 L 744 127 L 700 142 L 662 157 Q 492 230 371 350 Q 246 471 168 639 L 138 713 L 123 759 L 111 803 L 111 807 L 107 820 L 100 854 L 96 883 L 95 884 L 95 890 L 94 891 L 94 897 L 93 898 L 93 904 L 92 905 L 90 930 L 89 931 L 89 941 L 88 942 L 88 953 L 87 954 L 86 989 L 85 990 L 85 1059 L 86 1060 L 86 1080 L 87 1081 L 87 1095 L 88 1096 L 88 1107 L 89 1108 L 91 1136 L 92 1137 L 92 1144 L 93 1145 L 96 1171 L 97 1172 L 97 1178 L 99 1184 L 100 1195 L 105 1220 L 114 1258 L 126 1300 L 145 1355 L 160 1392 L 186 1448 Q 206 1487 229 1524 Q 280 1605 345 1673 Q 466 1801 637 1880 L 714 1911 L 764 1927 L 810 1939 L 853 1948 L 882 1952 L 883 1953 L 889 1953 L 890 1954 L 896 1954 L 897 1955 L 920 1957 L 921 1958 L 930 1958 L 931 1959 L 941 1959 L 942 1960 L 968 1961 L 969 1962 L 989 1962 L 990 1963 L 1060 1963 L 1061 1962 L 1084 1962 L 1085 1961 L 1101 1961 L 1102 1960 L 1136 1958 L 1137 1957 L 1145 1957 L 1146 1956 L 1154 1956 L 1170 1953 L 1184 1952 L 1209 1947 L 1214 1947 L 1225 1944 L 1230 1944 L 1235 1942 L 1262 1937 L 1315 1923 L 1358 1909 Q 1446 1878 1520 1832 Q 1590 1789 1649 1734 Q 1780 1613 1854 1434 Q 1871 1392 1884 1348 L 1899 1291 L 1908 1248 L 1913 1213 L 1914 1212 L 1914 1206 L 1915 1205 L 1915 1199 L 1916 1198 L 1918 1175 L 1919 1174 L 1919 1165 L 1920 1164 L 1920 1155 L 1921 1154 L 1922 1132 L 1923 1131 L 1923 1117 L 1924 1116 L 1925 1062 L 1926 1061 L 1925 996 L 1924 995 L 1922 951 L 1921 950 L 1921 941 L 1920 940 L 1918 914 L 1917 913 L 1917 905 L 1916 904 L 1911 865 L 1909 859 Q 1910 853 1909 853 L 1024 853 L 1024 1217 L 1528 1217 L 1526 1232 L 1515 1272 L 1497 1318 Q 1468 1380 1424 1428 Q 1358 1499 1263 1542 L 1207 1563 L 1162 1575 L 1104 1585 L 1074 1587 L 1073 1588 L 1057 1588 L 1056 1589 L 997 1589 L 996 1588 L 982 1588 L 981 1587 L 971 1587 L 970 1586 L 962 1586 L 961 1585 L 940 1583 L 888 1572 L 843 1558 Q 727 1515 647 1436 Q 572 1365 524 1267 L 502 1214 L 483 1148 L 473 1093 L 472 1076 L 471 1075 L 471 1064 L 470 1063 L 470 1048 L 469 1047 L 469 1002 L 470 1001 L 470 986 L 471 985 L 472 964 L 473 963 L 473 956 L 474 955 L 477 930 L 488 881 L 508 820 Q 552 711 626 634 Q 698 556 801 508 Q 849 485 908 472 L 960 463 L 979 462 L 980 461 L 993 461 L 994 460 L 1056 460 L 1057 461 L 1071 461 L 1072 462 L 1099 464 L 1149 473 L 1201 488 Q 1255 507 1300 535 L 1346 567 L 1379 596 L 1385 599 L 1652 332 L 1652 330 Q 1587 268 1509 219 Q 1434 173 1347 140 L 1312 128 L 1271 116 L 1230 106 L 1176 96 L 1149 93 L 1148 92 L 1141 92 L 1140 91 L 1122 90 L 1121 89 L 1098 88 L 1097 87 L 1082 87 L 1081 86 L 1060 86 L 1059 85 L 990 85 Z " /><path fill="rgb(233,65,49)" stroke="rgb(233,65,49)" stroke-width="1" opacity="0.47843137254901963" d="M 989.5 85 L 1059 85.5 L 989.5 86 L 989.5 85 Z " /><path fill="rgb(233,65,49)" stroke="rgb(233,65,49)" stroke-width="1" opacity="0.47843137254901963" d="M 968.5 86 L 982 86.5 L 968.5 87 L 968.5 86 Z " /><path fill="rgb(233,65,49)" stroke="rgb(233,65,49)" stroke-width="1" opacity="0.47843137254901963" d="M 1067.5 86 L 1081 86.5 L 1067.5 87 L 1067.5 86 Z " /><path fill="rgb(233,65,49)" stroke="rgb(233,65,49)" stroke-width="1" opacity="0.47843137254901963" d="M 953.5 87 L 964 87.5 L 953.5 88 L 953.5 87 Z " /><path fill="rgb(233,65,49)" stroke="rgb(233,65,49)" stroke-width="1" opacity="0.47843137254901963" d="M 1086.5 87 L 1097 87.5 L 1086.5 88 L 1086.5 87 Z " /><path fill="rgb(233,65,49)" stroke="rgb(233,65,49)" stroke-width="1" opacity="0.47843137254901963" d="M 941.5 88 L 950 88.5 L 941.5 89 L 941.5 88 Z " /><path fill="rgb(233,65,49)" stroke="rgb(233,65,49)" stroke-width="1" opacity="0.47843137254901963" d="M 1101.5 88 L 1110 88.5 L 1101.5 89 L 1101.5 88 Z " /><path fill="rgb(233,65,49)" stroke="rgb(233,65,49)" stroke-width="1" opacity="0.47843137254901963" d="M 930.5 89 L 938 89.5 L 930.5 90 L 930.5 89 Z " /><path fill="rgb(233,65,49)" stroke="rgb(233,65,49)" stroke-width="1" opacity="0.47843137254901963" d="M 1113.5 89 L 1121 89.5 L 1113.5 90 L 1113.5 89 Z " /><path fill="rgb(233,65,49)" stroke="rgb(233,65,49)" stroke-width="1" opacity="0.47843137254901963" d="M 920.5 90 L 927 90.5 L 920.5 91 L 920.5 90 Z " /><path fill="rgb(233,65,49)" stroke="rgb(233,65,49)" stroke-width="1" opacity="0.47843137254901963" d="M 1123.5 90 L 1130 90.5 L 1123.5 91 L 1123.5 90 Z " /><path fill="rgb(233,65,49)" stroke="rgb(233,65,49)" stroke-width="1" opacity="0.47843137254901963" d="M 912.5 91 L 918 91.5 L 912.5 92 L 912.5 91 Z " /><path fill="rgb(233,65,49)" stroke="rgb(233,65,49)" stroke-width="1" opacity="0.47843137254901963" d="M 1133.5 91 L 1140 91.5 L 1133.5 92 L 1133.5 91 Z " /><path fill="rgb(233,65,49)" stroke="rgb(233,65,49)" stroke-width="1" opacity="0.47843137254901963" d="M 903.5 92 L 910 92.5 L 903.5 93 L 903.5 92 Z " /><path fill="rgb(233,65,49)" stroke="rgb(233,65,49)" stroke-width="1" opacity="0.47843137254901963" d="M 1142.5 92 L 1148 92.5 L 1142.5 93 L 1142.5 92 Z " /><path fill="rgb(233,65,49)" stroke="rgb(233,65,49)" stroke-width="1" opacity="0.47843137254901963" d="M 896.5 93 L 902 93.5 L 896.5 94 L 896.5 93 Z " /><path fill="rgb(233,65,49)" stroke="rgb(233,65,49)" stroke-width="1" opacity="0.47843137254901963" d="M 1150.5 93 L 1155 93.5 L 1150.5 94 L 1150.5 93 Z " /><path fill="rgb(233,65,49)" stroke="rgb(233,65,49)" stroke-width="1" opacity="0.47843137254901963" d="M 889.5 94 L 894 94.5 L 889.5 95 L 889.5 94 Z " /><path fill="rgb(233,65,49)" stroke="rgb(233,65,49)" stroke-width="1" opacity="0.47843137254901963" d="M 1157.5 94 L 1163 94.5 L 1157.5 95 L 1157.5 94 Z " /><path fill="rgb(233,65,49)" stroke="rgb(233,65,49)" stroke-width="1" opacity="0.47843137254901963" d="M 882.5 95 L 887 95.5 L 882.5 96 L 882.5 95 Z " /><path fill="rgb(233,65,49)" stroke="rgb(233,65,49)" stroke-width="1" opacity="0.47843137254901963" d="M 1165.5 95 L 1169 95.5 L 1165.5 96 L 1165.5 95 Z " /><path fill="rgb(233,65,49)" stroke="rgb(233,65,49)" stroke-width="1" opacity="0.47843137254901963" d="M 876.5 96 L 881 96.5 L 876.5 97 L 876.5 96 Z " /><path fill="rgb(233,65,49)" stroke="rgb(233,65,49)" stroke-width="1" opacity="0.47843137254901963" d="M 1171.5 96 L 1176 96.5 L 1171.5 97 L 1171.5 96 Z " /><path fill="rgb(233,65,49)" stroke="rgb(233,65,49)" stroke-width="1" opacity="0.47843137254901963" d="M 869.5 97 L 874 97.5 L 869.5 98 L 869.5 97 Z " /><path fill="rgb(233,65,49)" stroke="rgb(233,65,49)" stroke-width="1" opacity="0.47843137254901963" d="M 1177.5 97 L 1182 97.5 L 1177.5 98 L 1177.5 97 Z " /><path fill="rgb(233,65,49)" stroke="rgb(233,65,49)" stroke-width="1" opacity="0.47843137254901963" d="M 864.5 98 L 868 98.5 L 864.5 99 L 864.5 98 Z " /><path fill="rgb(233,65,49)" stroke="rgb(233,65,49)" stroke-width="1" opacity="0.47843137254901963" d="M 1184.5 98 L 1188 98.5 L 1184.5 99 L 1184.5 98 Z " /><path fill="rgb(233,65,49)" stroke="rgb(233,65,49)" stroke-width="1" opacity="0.47843137254901963" d="M 858.5 99 L 862 99.5 L 858.5 100 L 858.5 99 Z " /><path fill="rgb(233,65,49)" stroke="rgb(233,65,49)" stroke-width="1" opacity="0.47843137254901963" d="M 1190.5 99 L 1194 99.5 L 1190.5 100 L 1190.5 99 Z " /><path fill="rgb(233,65,49)" stroke="rgb(233,65,49)" stroke-width="1" opacity="0.47843137254901963" d="M 852.5 100 L 856 100.5 L 852.5 101 L 852.5 100 Z " /><path fill="rgb(233,65,49)" stroke="rgb(233,65,49)" stroke-width="1" opacity="0.47843137254901963" d="M 1195.5 100 L 1199 100.5 L 1195.5 101 L 1195.5 100 Z " /><path fill="rgb(233,65,49)" stroke="rgb(233,65,49)" stroke-width="1" opacity="0.47843137254901963" d="M 847.5 101 L 851 101.5 L 847.5 102 L 847.5 101 Z " /><path fill="rgb(233,65,49)" stroke="rgb(233,65,49)" stroke-width="1" opacity="0.47843137254901963" d="M 1201.5 101 L 1205 101.5 L 1201.5 102 L 1201.5 101 Z " /><path fill="rgb(233,65,49)" stroke="rgb(233,65,49)" stroke-width="1" opacity="0.47843137254901963" d="M 842.5 102 L 846 102.5 L 842.5 103 L 842.5 102 Z " /><path fill="rgb(233,65,49)" stroke="rgb(233,65,49)" stroke-width="1" opacity="0.47843137254901963" d="M 1206.5 102 L 1210 102.5 L 1206.5 103 L 1206.5 102 Z " /><path fill="rgb(233,65,49)" stroke="rgb(233,65,49)" stroke-width="1" opacity="0.47843137254901963" d="M 837.5 103 L 841 103.5 L 837.5 104 L 837.5 103 Z " /><path fill="rgb(233,65,49)" stroke="rgb(233,65,49)" stroke-width="1" opacity="0.47843137254901963" d="M 1211.5 103 L 1215 103.5 L 1211.5 104 L 1211.5 103 Z " /><path fill="rgb(233,65,49)" stroke="rgb(233,65,49)" stroke-width="1" opacity="0.47843137254901963" d="M 832.5 104 L 836 104.5 L 832.5 105 L 832.5 104 Z " /><path fill="rgb(233,65,49)" stroke="rgb(233,65,49)" stroke-width="1" opacity="0.47843137254901963" d="M 1216.5 104 L 1220 104.5 L 1216.5 105 L 1216.5 104 Z " /><path fill="rgb(233,65,49)" stroke="rgb(233,65,49)" stroke-width="1" opacity="0.47843137254901963" d="M 827.5 105 L 831 105.5 L 827.5 106 L 827.5 105 Z " /><path fill="rgb(233,65,49)" stroke="rgb(233,65,49)" stroke-width="1" opacity="0.47843137254901963" d="M 1221.5 105 L 1225 105.5 L 1221.5 106 L 1221.5 105 Z " /><path fill="rgb(233,65,49)" stroke="rgb(233,65,49)" stroke-width="1" opacity="0.47843137254901963" d="M 822.5 106 L 826 106.5 L 818.5 108 L 818.5 107 L 822.5 106 Z " /><path fill="rgb(233,65,49)" stroke="rgb(233,65,49)" stroke-width="1" opacity="0.47843137254901963" d="M 1226.5 106 L 1230 106.5 L 1226.5 107 L 1226.5 106 Z " /><path fill="rgb(233,65,49)" stroke="rgb(233,65,49)" stroke-width="1" opacity="0.47843137254901963" d="M 1231.5 107 L 1234 107.5 L 1231.5 108 L 1231.5 107 Z " /><path fill="rgb(233,65,49)" stroke="rgb(233,65,49)" stroke-width="1" opacity="0.47843137254901963" d="M 814.5 108 L 817 108.5 L 814.5 109 L 814.5 108 Z " /><path fill="rgb(233,65,49)" stroke="rgb(233,65,49)" stroke-width="1" opacity="0.47843137254901963" d="M 1235.5 108 L 1238 108.5 L 1235.5 109 L 1235.5 108 Z " /><path fill="rgb(233,65,49)" stroke="rgb(233,65,49)" stroke-width="1" opacity="0.47843137254901963" d="M 809.5 109 L 813 109.5 L 809.5 110 L 809.5 109 Z " /><path fill="rgb(233,65,49)" stroke="rgb(233,65,49)" stroke-width="1" opacity="0.47843137254901963" d="M 1239.5 109 L 1243 109.5 L 1239.5 110 L 1239.5 109 Z " /><path fill="rgb(233,65,49)" stroke="rgb(233,65,49)" stroke-width="1" opacity="0.47843137254901963" d="M 805.5 110 L 808 110.5 L 805.5 111 L 805.5 110 Z " /><path fill="rgb(233,65,49)" stroke="rgb(233,65,49)" stroke-width="1" opacity="0.47843137254901963" d="M 1244.5 110 L 1247 110.5 L 1244.5 111 L 1244.5 110 Z " /><path fill="rgb(233,65,49)" stroke="rgb(233,65,49)" stroke-width="1" opacity="0.47843137254901963" d="M 801.5 111 L 804 111.5 L 801.5 112 L 801.5 111 Z " /><path fill="rgb(233,65,49)" stroke="rgb(233,65,49)" stroke-width="1" opacity="0.47843137254901963" d="M 1248.5 111 L 1251 111.5 L 1248.5 112 L 1248.5 111 Z " /><path fill="rgb(233,65,49)" stroke="rgb(233,65,49)" stroke-width="1" opacity="0.47843137254901963" d="M 797.5 112 L 800 112.5 L 797.5 113 L 797.5 112 Z " /><path fill="rgb(233,65,49)" stroke="rgb(233,65,49)" stroke-width="1" opacity="0.47843137254901963" d="M 1252.5 112 L 1255 112.5 L 1252.5 113 L 1252.5 112 Z " /><path fill="rgb(233,65,49)" stroke="rgb(233,65,49)" stroke-width="1" opacity="0.47843137254901963" d="M 793.5 113 L 796 113.5 L 793.5 114 L 793.5 113 Z " /><path fill="rgb(233,65,49)" stroke="rgb(233,65,49)" stroke-width="1" opacity="0.47843137254901963" d="M 1256.5 113 L 1259 113.5 L 1256.5 114 L 1256.5 113 Z " /><path fill="rgb(233,65,49)" stroke="rgb(233,65,49)" stroke-width="1" opacity="0.47843137254901963" d="M 789.5 114 L 792 114.5 L 789.5 115 L 789.5 114 Z " /><path fill="rgb(233,65,49)" stroke="rgb(233,65,49)" stroke-width="1" opacity="0.47843137254901963" d="M 1260.5 114 L 1263 114.5 L 1260.5 115 L 1260.5 114 Z " /><path fill="rgb(233,65,49)" stroke="rgb(233,65,49)" stroke-width="1" opacity="0.47843137254901963" d="M 785.5 115 L 788 115.5 L 785.5 116 L 785.5 115 Z " /><path fill="rgb(233,65,49)" stroke="rgb(233,65,49)" stroke-width="1" opacity="0.47843137254901963" d="M 1264.5 115 L 1267 115.5 L 1264.5 116 L 1264.5 115 Z " /><path fill="rgb(233,65,49)" stroke="rgb(233,65,49)" stroke-width="1" opacity="0.47843137254901963" d="M 781.5 116 L 784 116.5 L 778.5 118 L 778.5 117 L 781.5 116 Z " /><path fill="rgb(233,65,49)" stroke="rgb(233,65,49)" stroke-width="1" opacity="0.47843137254901963" d="M 1268.5 116 L 1271 116.5 L 1268.5 117 L 1268.5 116 Z " /><path fill="rgb(233,65,49)" stroke="rgb(233,65,49)" stroke-width="1" opacity="0.47843137254901963" d="M 774.5 118 L 777 118.5 L 774.5 119 L 774.5 118 Z " /><path fill="rgb(233,65,49)" stroke="rgb(233,65,49)" stroke-width="1" opacity="0.47843137254901963" d="M 1275.5 118 L 1278 118.5 L 1275.5 119 L 1275.5 118 Z " /><path fill="rgb(233,65,49)" stroke="rgb(233,65,49)" stroke-width="1" opacity="0.47843137254901963" d="M 770.5 119 L 773 119.5 L 767.5 121 L 767.5 120 L 770.5 119 Z " /><path fill="rgb(233,65,49)" stroke="rgb(233,65,49)" stroke-width="1" opacity="0.47843137254901963" d="M 1279.5 119 L 1285 120.5 L 1282.5 121 L 1279.5 120 L 1279.5 119 Z " /><path fill="rgb(233,65,49)" stroke="rgb(233,65,49)" stroke-width="1" opacity="0.47843137254901963" d="M 763.5 121 L 766 121.5 L 760.5 123 L 760.5 122 L 763.5 121 Z " /><path fill="rgb(233,65,49)" stroke="rgb(233,65,49)" stroke-width="1" opacity="0.47843137254901963" d="M 1286.5 121 L 1292 122.5 L 1289.5 123 L 1286.5 122 L 1286.5 121 Z " /><path fill="rgb(233,65,49)" stroke="rgb(233,65,49)" stroke-width="1" opacity="0.47843137254901963" d="M 753.5 124 L 756 124.5 L 750.5 126 L 750.5 125 L 753.5 124 Z " /><path fill="rgb(233,65,49)" stroke="rgb(233,65,49)" stroke-width="1" opacity="0.47843137254901963" d="M 1296.5 124 L 1302 125.5 L 1299.5 126 L 1296.5 125 L 1296.5 124 Z " /><path fill="rgb(233,65,49)" stroke="rgb(233,65,49)" stroke-width="1" opacity="0.47843137254901963" d="M 743.5 127 L 746 127.5 L 731.5 132 L 731.5 131 L 743.5 127 Z " /><path fill="rgb(233,65,49)" stroke="rgb(233,65,49)" stroke-width="1" opacity="0.47843137254901963" d="M 1309.5 128 L 1335 136.5 L 1333.5 137 L 1309.5 129 L 1309.5 128 Z " /><path fill="rgb(233,65,49)" stroke="rgb(233,65,49)" stroke-width="1" opacity="0.47843137254901963" d="M 728.5 132 L 730 132.5 L 711.5 139 L 711.5 138 L 728.5 132 Z " /><path fill="rgb(233,65,49)" stroke="rgb(233,65,49)" stroke-width="1" opacity="0.47843137254901963" d="M 1342.5 139 L 1349 141.5 L 1347.5 142 L 1342.5 140 L 1342.5 139 Z " /><path fill="rgb(233,65,49)" stroke="rgb(233,65,49)" stroke-width="1" opacity="0.47843137254901963" d="M 705.5 140 L 707 140.5 L 697.5 144 L 697.5 143 L 705.5 140 Z " /><path fill="rgb(233,65,49)" stroke="rgb(233,65,49)" stroke-width="1" opacity="0.47843137254901963" d="M 1350.5 142 L 1357 144.5 L 1355.5 145 L 1350.5 143 L 1350.5 142 Z " /><path fill="rgb(233,65,49)" stroke="rgb(233,65,49)" stroke-width="1" opacity="0.47843137254901963" d="M 694.5 144 L 696 144.5 L 684.5 149 L 684.5 148 L 694.5 144 Z " /><path fill="rgb(233,65,49)" stroke="rgb(233,65,49)" stroke-width="1" opacity="0.47843137254901963" d="M 1358.5 145 L 1362 146.5 L 1360.5 147 L 1358.5 145 Z " /><path fill="rgb(233,65,49)" stroke="rgb(233,65,49)" stroke-width="1" opacity="0.47843137254901963" d="M 1366.5 148 L 1370 149.5 L 1368.5 150 L 1366.5 148 Z " /><path fill="rgb(233,65,49)" stroke="rgb(233,65,49)" stroke-width="1" opacity="0.47843137254901963" d="M 681.5 149 L 683 149.5 L 679.5 151 L 679.5 150 L 681.5 149 Z " /><path fill="rgb(233,65,49)" stroke="rgb(233,65,49)" stroke-width="1" opacity="0.47843137254901963" d="M 1371.5 150 L 1375 151.5 L 1373.5 152 L 1371.5 150 Z " /><path fill="rgb(233,65,49)" stroke="rgb(233,65,49)" stroke-width="1" opacity="0.47843137254901963" d="M 676.5 151 L 678 151.5 L 674.5 153 L 674.5 152 L 676.5 151 Z " /><path fill="rgb(233,65,49)" stroke="rgb(233,65,49)" stroke-width="1" opacity="0.47843137254901963" d="M 1376.5 152 L 1382 154.5 L 1380.5 155 L 1376.5 153 L 1376.5 152 Z " /><path fill="rgb(233,65,49)" stroke="rgb(233,65,49)" stroke-width="1" opacity="0.47843137254901963" d="M 671.5 153 L 673 153.5 L 669.5 155 L 669.5 154 L 671.5 153 Z " /><path fill="rgb(233,65,49)" stroke="rgb(233,65,49)" stroke-width="1" opacity="0.47843137254901963" d="M 666.5 155 L 668 155.5 L 657.5 160 L 657.5 159 L 666.5 155 Z " /><path fill="rgb(233,65,49)" stroke="rgb(233,65,49)" stroke-width="1" opacity="0.47843137254901963" d="M 1383.5 155 L 1387 156.5 L 1385.5 157 L 1383.5 155 Z " /><path fill="rgb(233,65,49)" stroke="rgb(233,65,49)" stroke-width="1" opacity="0.47843137254901963" d="M 1388.5 157 L 1394 159.5 L 1392.5 160 L 1388.5 158 L 1388.5 157 Z " /><path fill="rgb(233,65,49)" stroke="rgb(233,65,49)" stroke-width="1" opacity="0.47843137254901963" d="M 654.5 160 L 656 160.5 L 648.5 164 L 648.5 163 L 654.5 160 Z " /><path fill="rgb(233,65,49)" stroke="rgb(233,65,49)" stroke-width="1" opacity="0.47843137254901963" d="M 1397.5 161 L 1403 163.5 L 1401.5 164 L 1397.5 162 L 1397.5 161 Z " /><path fill="rgb(233,65,49)" stroke="rgb(233,65,49)" stroke-width="1" opacity="0.47843137254901963" d="M 645.5 164 L 647 164.5 L 641.5 167 L 641.5 166 L 645.5 164 Z " /><path fill="rgb(233,65,49)" stroke="rgb(233,65,49)" stroke-width="1" opacity="0.47843137254901963" d="M 1406.5 165 L 1416 169.5 L 1414.5 170 L 1406.5 166 L 1406.5 165 Z " /><path fill="rgb(233,65,49)" stroke="rgb(233,65,49)" stroke-width="1" opacity="0.47843137254901963" d="M 638.5 167 L 640 167.5 L 628.5 173 L 628.5 172 L 638.5 167 Z " /><path fill="rgb(233,65,49)" stroke="rgb(233,65,49)" stroke-width="1" opacity="0.47843137254901963" d="M 1419.5 171 L 1456 189.5 L 1454.5 189 L 1419.5 172 L 1419.5 171 Z " /><path fill="rgb(233,65,49)" stroke="rgb(233,65,49)" stroke-width="1" opacity="0.47843137254901963" d="M 623.5 174 L 625 174.5 L 586.5 194 L 587.5 192 L 623.5 174 Z " /><path fill="rgb(233,65,49)" stroke="rgb(233,65,49)" stroke-width="1" opacity="0.47843137254901963" d="M 1459.5 191 L 1469 196.5 L 1467.5 196 L 1460.5 193 L 1459.5 191 Z " /><path fill="rgb(233,65,49)" stroke="rgb(233,65,49)" stroke-width="1" opacity="0.47843137254901963" d="M 584.5 194 L 583.5 196 Q 550.5 212 521.5 232 L 522.5 230 Q 552 210.5 584.5 194 Z " /><path fill="rgb(233,65,49)" stroke="rgb(233,65,49)" stroke-width="1" opacity="0.47843137254901963" d="M 1470.5 197 L 1490 208.5 L 1488.5 208 L 1471.5 199 L 1470.5 197 Z " /><path fill="rgb(233,65,49)" stroke="rgb(233,65,49)" stroke-width="1" opacity="0.47843137254901963" d="M 1491.5 209 L 1495 211.5 L 1493.5 211 L 1491.5 209 Z " /><path fill="rgb(233,65,49)" stroke="rgb(233,65,49)" stroke-width="1" opacity="0.47843137254901963" d="M 1496.5 212 L 1500 214.5 L 1498.5 214 L 1496.5 212 Z " /><path fill="rgb(233,65,49)" stroke="rgb(233,65,49)" stroke-width="1" opacity="0.47843137254901963" d="M 1501.5 215 L 1536 237.5 L 1534.5 237 L 1502.5 217 L 1501.5 215 Z " /><path fill="rgb(233,65,49)" stroke="rgb(233,65,49)" stroke-width="1" opacity="0.47843137254901963" d="M 519.5 232 L 518.5 234 Q 432.3 288.8 362 359.5 Q 275.1 446.1 211.5 556 L 212 554.5 Q 278.1 439.1 370.5 350 Q 438 284 519.5 232 Z " /><path fill="rgb(233,65,49)" stroke="rgb(233,65,49)" stroke-width="1" opacity="0.47843137254901963" d="M 1537.5 238 Q 1599.3 279.2 1652 329.5 L 1652 331.5 L 1384.5 599 L 1651 331.5 L 1651 329.5 L 1645.5 324 L 1587.5 275 L 1539.5 241 L 1537.5 238 Z " /><path fill="rgb(233,65,49)" stroke="rgb(233,65,49)" stroke-width="1" opacity="0.47843137254901963" d="M 998.5 459 L 1051 459.5 L 998.5 460 L 998.5 459 Z " /><path fill="rgb(233,65,49)" stroke="rgb(233,65,49)" stroke-width="1" opacity="0.47843137254901963" d="M 982.5 460 L 993 460.5 L 982.5 461 L 982.5 460 Z " /><path fill="rgb(233,65,49)" stroke="rgb(233,65,49)" stroke-width="1" opacity="0.47843137254901963" d="M 1056.5 460 L 1067 460.5 L 1056.5 461 L 1056.5 460 Z " /><path fill="rgb(233,65,49)" stroke="rgb(233,65,49)" stroke-width="1" opacity="0.47843137254901963" d="M 971.5 461 L 979 461.5 L 971.5 462 L 971.5 461 Z " /><path fill="rgb(233,65,49)" stroke="rgb(233,65,49)" stroke-width="1" opacity="0.47843137254901963" d="M 1071.5 461 L 1079 461.5 L 1071.5 462 L 1071.5 461 Z " /><path fill="rgb(233,65,49)" stroke="rgb(233,65,49)" stroke-width="1" opacity="0.47843137254901963" d="M 962.5 462 L 968 462.5 L 962.5 463 L 962.5 462 Z " /><path fill="rgb(233,65,49)" stroke="rgb(233,65,49)" stroke-width="1" opacity="0.47843137254901963" d="M 1082.5 462 L 1089 462.5 L 1082.5 463 L 1082.5 462 Z " /><path fill="rgb(233,65,49)" stroke="rgb(233,65,49)" stroke-width="1" opacity="0.47843137254901963" d="M 954.5 463 L 959 463.5 L 954.5 464 L 954.5 463 Z " /><path fill="rgb(233,65,49)" stroke="rgb(233,65,49)" stroke-width="1" opacity="0.47843137254901963" d="M 1091.5 463 L 1097 463.5 L 1091.5 464 L 1091.5 463 Z " /><path fill="rgb(233,65,49)" stroke="rgb(233,65,49)" stroke-width="1" opacity="0.47843137254901963" d="M 946.5 464 L 952 464.5 L 946.5 465 L 946.5 464 Z " /><path fill="rgb(233,65,49)" stroke="rgb(233,65,49)" stroke-width="1" opacity="0.47843137254901963" d="M 1099.5 464 L 1104 464.5 L 1099.5 465 L 1099.5 464 Z " /><path fill="rgb(233,65,49)" stroke="rgb(233,65,49)" stroke-width="1" opacity="0.47843137254901963" d="M 940.5 465 L 945 465.5 L 940.5 466 L 940.5 465 Z " /><path fill="rgb(233,65,49)" stroke="rgb(233,65,49)" stroke-width="1" opacity="0.47843137254901963" d="M 1106.5 465 L 1111 465.5 L 1106.5 466 L 1106.5 465 Z " /><path fill="rgb(233,65,49)" stroke="rgb(233,65,49)" stroke-width="1" opacity="0.47843137254901963" d="M 934.5 466 L 938 466.5 L 934.5 467 L 934.5 466 Z " /><path fill="rgb(233,65,49)" stroke="rgb(233,65,49)" stroke-width="1" opacity="0.47843137254901963" d="M 1113.5 466 L 1117 466.5 L 1113.5 467 L 1113.5 466 Z " /><path fill="rgb(233,65,49)" stroke="rgb(233,65,49)" stroke-width="1" opacity="0.47843137254901963" d="M 928.5 467 L 932 467.5 L 928.5 468 L 928.5 467 Z " /><path fill="rgb(233,65,49)" stroke="rgb(233,65,49)" stroke-width="1" opacity="0.47843137254901963" d="M 1119.5 467 L 1123 467.5 L 1119.5 468 L 1119.5 467 Z " /><path fill="rgb(233,65,49)" stroke="rgb(233,65,49)" stroke-width="1" opacity="0.47843137254901963" d="M 923.5 468 L 927 468.5 L 923.5 469 L 923.5 468 Z " /><path fill="rgb(233,65,49)" stroke="rgb(233,65,49)" stroke-width="1" opacity="0.47843137254901963" d="M 1124.5 468 L 1128 468.5 L 1124.5 469 L 1124.5 468 Z " /><path fill="rgb(233,65,49)" stroke="rgb(233,65,49)" stroke-width="1" opacity="0.47843137254901963" d="M 918.5 469 L 922 469.5 L 918.5 470 L 918.5 469 Z " /><path fill="rgb(233,65,49)" stroke="rgb(233,65,49)" stroke-width="1" opacity="0.47843137254901963" d="M 1130.5 469 L 1134 469.5 L 1130.5 470 L 1130.5 469 Z " /><path fill="rgb(233,65,49)" stroke="rgb(233,65,49)" stroke-width="1" opacity="0.47843137254901963" d="M 913.5 470 L 917 470.5 L 913.5 471 L 913.5 470 Z " /><path fill="rgb(233,65,49)" stroke="rgb(233,65,49)" stroke-width="1" opacity="0.47843137254901963" d="M 1135.5 470 L 1139 470.5 L 1135.5 471 L 1135.5 470 Z " /><path fill="rgb(233,65,49)" stroke="rgb(233,65,49)" stroke-width="1" opacity="0.47843137254901963" d="M 908.5 471 L 912 471.5 L 908.5 472 L 908.5 471 Z " /><path fill="rgb(233,65,49)" stroke="rgb(233,65,49)" stroke-width="1" opacity="0.47843137254901963" d="M 1140.5 471 L 1143 471.5 L 1140.5 472 L 1140.5 471 Z " /><path fill="rgb(233,65,49)" stroke="rgb(233,65,49)" stroke-width="1" opacity="0.47843137254901963" d="M 904.5 472 L 907 472.5 L 904.5 473 L 904.5 472 Z " /><path fill="rgb(233,65,49)" stroke="rgb(233,65,49)" stroke-width="1" opacity="0.47843137254901963" d="M 1144.5 472 L 1148 472.5 L 1144.5 473 L 1144.5 472 Z " /><path fill="rgb(233,65,49)" stroke="rgb(233,65,49)" stroke-width="1" opacity="0.47843137254901963" d="M 899.5 473 L 903 473.5 L 896.5 475 L 896.5 474 L 899.5 473 Z " /><path fill="rgb(233,65,49)" stroke="rgb(233,65,49)" stroke-width="1" opacity="0.47843137254901963" d="M 1149.5 473 L 1152 473.5 L 1149.5 474 L 1149.5 473 Z " /><path fill="rgb(233,65,49)" stroke="rgb(233,65,49)" stroke-width="1" opacity="0.47843137254901963" d="M 1153.5 474 L 1156 474.5 L 1153.5 475 L 1153.5 474 Z " /><path fill="rgb(233,65,49)" stroke="rgb(233,65,49)" stroke-width="1" opacity="0.47843137254901963" d="M 891.5 475 L 895 475.5 L 888.5 477 L 888.5 476 L 891.5 475 Z " /><path fill="rgb(233,65,49)" stroke="rgb(233,65,49)" stroke-width="1" opacity="0.47843137254901963" d="M 1157.5 475 L 1160 475.5 L 1157.5 476 L 1157.5 475 Z " /><path fill="rgb(233,65,49)" stroke="rgb(233,65,49)" stroke-width="1" opacity="0.47843137254901963" d="M 1161.5 476 L 1164 476.5 L 1161.5 477 L 1161.5 476 Z " /><path fill="rgb(233,65,49)" stroke="rgb(233,65,49)" stroke-width="1" opacity="0.47843137254901963" d="M 884.5 477 L 887 477.5 L 884.5 478 L 884.5 477 Z " /><path fill="rgb(233,65,49)" stroke="rgb(233,65,49)" stroke-width="1" opacity="0.47843137254901963" d="M 1165.5 477 L 1171 478.5 L 1168.5 479 L 1165.5 478 L 1165.5 477 Z " /><path fill="rgb(233,65,49)" stroke="rgb(233,65,49)" stroke-width="1" opacity="0.47843137254901963" d="M 880.5 478 L 883 478.5 L 880.5 479 L 880.5 478 Z " /><path fill="rgb(233,65,49)" stroke="rgb(233,65,49)" stroke-width="1" opacity="0.47843137254901963" d="M 1172.5 479 L 1178 480.5 L 1175.5 481 L 1172.5 480 L 1172.5 479 Z " /><path fill="rgb(233,65,49)" stroke="rgb(233,65,49)" stroke-width="1" opacity="0.47843137254901963" d="M 873.5 480 L 876 480.5 L 873.5 481 L 873.5 480 Z " /><path fill="rgb(233,65,49)" stroke="rgb(233,65,49)" stroke-width="1" opacity="0.47843137254901963" d="M 1179.5 481 L 1188 483.5 L 1185.5 484 L 1179.5 482 L 1179.5 481 Z " /><path fill="rgb(233,65,49)" stroke="rgb(233,65,49)" stroke-width="1" opacity="0.47843137254901963" d="M 866.5 482 L 869 482.5 L 840.5 492 L 840.5 491 L 866.5 482 Z " /><path fill="rgb(233,65,49)" stroke="rgb(233,65,49)" stroke-width="1" opacity="0.47843137254901963" d="M 1201.5 488 L 1211 491.5 L 1209.5 492 L 1201.5 489 L 1201.5 488 Z " /><path fill="rgb(233,65,49)" stroke="rgb(233,65,49)" stroke-width="1" opacity="0.47843137254901963" d="M 837.5 492 L 839 492.5 L 832.5 495 L 832.5 494 L 837.5 492 Z " /><path fill="rgb(233,65,49)" stroke="rgb(233,65,49)" stroke-width="1" opacity="0.47843137254901963" d="M 1212.5 492 L 1219 494.5 L 1217.5 495 L 1212.5 493 L 1212.5 492 Z " /><path fill="rgb(233,65,49)" stroke="rgb(233,65,49)" stroke-width="1" opacity="0.47843137254901963" d="M 829.5 495 L 831 495.5 L 827.5 497 L 827.5 496 L 829.5 495 Z " /><path fill="rgb(233,65,49)" stroke="rgb(233,65,49)" stroke-width="1" opacity="0.47843137254901963" d="M 1220.5 495 L 1224 496.5 L 1222.5 497 L 1220.5 495 Z " /><path fill="rgb(233,65,49)" stroke="rgb(233,65,49)" stroke-width="1" opacity="0.47843137254901963" d="M 824.5 497 L 826 497.5 L 822.5 499 L 822.5 498 L 824.5 497 Z " /><path fill="rgb(233,65,49)" stroke="rgb(233,65,49)" stroke-width="1" opacity="0.47843137254901963" d="M 1225.5 497 L 1247 506.5 L 1245.5 507 L 1225.5 498 L 1225.5 497 Z " /><path fill="rgb(233,65,49)" stroke="rgb(233,65,49)" stroke-width="1" opacity="0.47843137254901963" d="M 819.5 499 L 821 499.5 L 817.5 501 L 817.5 500 L 819.5 499 Z " /><path fill="rgb(233,65,49)" stroke="rgb(233,65,49)" stroke-width="1" opacity="0.47843137254901963" d="M 814.5 501 L 816 501.5 L 810.5 504 L 810.5 503 L 814.5 501 Z " /><path fill="rgb(233,65,49)" stroke="rgb(233,65,49)" stroke-width="1" opacity="0.47843137254901963" d="M 807.5 504 L 809 504.5 L 801.5 508 L 801.5 507 L 807.5 504 Z " /><path fill="rgb(233,65,49)" stroke="rgb(233,65,49)" stroke-width="1" opacity="0.47843137254901963" d="M 1248.5 507 L 1273 519.5 L 1271.5 519 L 1248.5 508 L 1248.5 507 Z " /><path fill="rgb(233,65,49)" stroke="rgb(233,65,49)" stroke-width="1" opacity="0.47843137254901963" d="M 798.5 508 L 800 508.5 L 769.5 524 L 770.5 522 L 798.5 508 Z " /><path fill="rgb(233,65,49)" stroke="rgb(233,65,49)" stroke-width="1" opacity="0.47843137254901963" d="M 1274.5 520 L 1282 524.5 L 1280.5 524 Q 1274.9 523.2 1274.5 520 Z " /><path fill="rgb(233,65,49)" stroke="rgb(233,65,49)" stroke-width="1" opacity="0.47843137254901963" d="M 765.5 525 L 764.5 527 L 738.5 542 L 739.5 540 L 765.5 525 Z " /><path fill="rgb(233,65,49)" stroke="rgb(233,65,49)" stroke-width="1" opacity="0.47843137254901963" d="M 1283.5 525 L 1289 528.5 L 1287.5 528 Q 1283.5 527.5 1283.5 525 Z " /><path fill="rgb(233,65,49)" stroke="rgb(233,65,49)" stroke-width="1" opacity="0.47843137254901963" d="M 1290.5 529 L 1299 534.5 L 1297.5 534 L 1291.5 531 L 1290.5 529 Z " /><path fill="rgb(233,65,49)" stroke="rgb(233,65,49)" stroke-width="1" opacity="0.47843137254901963" d="M 1300.5 535 L 1310 541.5 L 1308.5 541 L 1301.5 537 L 1300.5 535 Z " /><path fill="rgb(233,65,49)" stroke="rgb(233,65,49)" stroke-width="1" opacity="0.47843137254901963" d="M 736.5 542 L 735.5 544 Q 674 582 626 633.5 Q 584.7 677.2 552.5 730 L 553 728.5 Q 593.8 660.3 650.5 608 Q 689.5 571 736.5 542 Z " /><path fill="rgb(233,65,49)" stroke="rgb(233,65,49)" stroke-width="1" opacity="0.47843137254901963" d="M 1311.5 542 L 1319 547.5 L 1316.5 546 Q 1311.9 544.8 1311.5 542 Z " /><path fill="rgb(233,65,49)" stroke="rgb(233,65,49)" stroke-width="1" opacity="0.47843137254901963" d="M 1320.5 548 Q 1354.3 570.7 1383 598.5 L 1379.5 596 Q 1353.6 570.9 1322.5 551 L 1320.5 548 Z " /><path fill="rgb(233,65,49)" stroke="rgb(233,65,49)" stroke-width="1" opacity="0.47843137254901963" d="M 210.5 557 L 210 558.5 L 202.5 572 L 203 570.5 L 210.5 557 Z " /><path fill="rgb(233,65,49)" stroke="rgb(233,65,49)" stroke-width="1" opacity="0.47843137254901963" d="M 201.5 573 L 201 574.5 L 195.5 585 L 196 583.5 L 201.5 573 Z " /><path fill="rgb(233,65,49)" stroke="rgb(233,65,49)" stroke-width="1" opacity="0.47843137254901963" d="M 194.5 586 L 194 587.5 L 186.5 603 L 186 601.5 L 194.5 586 Z " /><path fill="rgb(233,65,49)" stroke="rgb(233,65,49)" stroke-width="1" opacity="0.47843137254901963" d="M 551.5 731 L 551 732.5 L 549.5 735 L 550 733.5 L 551.5 731 Z " /><path fill="rgb(233,65,49)" stroke="rgb(233,65,49)" stroke-width="1" opacity="0.47843137254901963" d="M 548.5 736 L 548 737.5 L 535.5 760 L 536 758.5 L 548.5 736 Z " /><path fill="rgb(233,65,49)" stroke="rgb(233,65,49)" stroke-width="1" opacity="0.47843137254901963" d="M 534.5 761 L 534 762.5 L 524.5 782 L 524 780.5 L 534.5 761 Z " /><path fill="rgb(233,65,49)" stroke="rgb(233,65,49)" stroke-width="1" opacity="0.47843137254901963" d="M 522.5 785 L 523 786.5 L 518.5 795 L 518 793.5 L 522.5 785 Z " /><path fill="rgb(233,65,49)" stroke="rgb(233,65,49)" stroke-width="1" opacity="0.47843137254901963" d="M 517.5 796 L 518 797.5 L 515.5 802 L 515 800.5 L 517.5 796 Z " /><path fill="rgb(233,65,49)" stroke="rgb(233,65,49)" stroke-width="1" opacity="0.47843137254901963" d="M 514.5 803 L 515 804.5 L 512.5 809 L 512 807.5 L 514.5 803 Z " /><path fill="rgb(233,65,49)" stroke="rgb(233,65,49)" stroke-width="1" opacity="0.47843137254901963" d="M 511.5 810 L 512 811.5 L 510.5 814 L 510 812.5 L 511.5 810 Z " /><path fill="rgb(233,65,49)" stroke="rgb(233,65,49)" stroke-width="1" opacity="0.47843137254901963" d="M 509.5 815 L 510 816.5 L 508.5 819 L 508 817.5 L 509.5 815 Z " /><path fill="rgb(233,65,49)" stroke="rgb(233,65,49)" stroke-width="1" opacity="0.47843137254901963" d="M 507.5 820 L 508 821.5 L 505.5 827 L 505 825.5 L 507.5 820 Z " /><path fill="rgb(233,65,49)" stroke="rgb(233,65,49)" stroke-width="1" opacity="0.47843137254901963" d="M 504.5 828 L 505 829.5 L 502.5 835 L 502 833.5 L 504.5 828 Z " /><path fill="rgb(235,65,50)" stroke="rgb(235,65,50)" stroke-width="1" opacity="0.996078431372549" d="M 982.5 86 L 1066.5 86 L 1067.5 87 L 1085.5 87 L 1086.5 88 L 1112.5 89 L 1113.5 90 L 1122.5 90 L 1123.5 91 L 1132.5 91 L 1133.5 92 L 1164.5 95 L 1243.5 110 Q 1294.8 122.2 1341.5 139 Q 1427.6 170.4 1500.5 215 Q 1582.9 265.1 1651 329.5 L 1651 331.5 L 1383.5 599 Q 1311.7 528.8 1208.5 490 L 1167.5 477 L 1138.5 470 L 1110.5 465 L 1089.5 463 L 1088.5 462 L 1079.5 462 L 1078.5 461 L 1051.5 460 L 1050.5 459 L 998.5 459 L 997.5 460 L 982.5 460 L 981.5 461 L 971.5 461 L 970.5 462 L 946.5 464 L 899.5 473 L 842.5 490 L 798.5 508 Q 695.7 556.7 623 635.5 Q 578.1 683.6 544 742.5 L 518 793.5 L 503 830.5 L 499 845 L 490.5 840 L 186 603.5 Q 257.3 462.3 364.5 357 Q 480.9 240.4 640.5 167 L 683.5 149 L 730.5 132 L 808.5 110 L 856.5 100 L 880.5 97 L 887.5 95 L 893.5 95 L 894.5 94 L 926.5 91 L 927.5 90 L 963.5 88 L 964.5 87 L 981.5 87 L 982.5 86 Z " /><path fill="rgb(250,188,1)" stroke="rgb(250,188,1)" stroke-width="1" opacity="0.996078431372549" d="M 185.5 603 L 499 846.5 L 488 880.5 L 475 941.5 L 473 962.5 L 472 963.5 L 472 972.5 L 471 973.5 L 470 999.5 L 469 1000.5 L 469 1047.5 L 470 1048.5 L 470 1062.5 L 471 1063.5 L 472 1084.5 L 473 1085.5 L 473 1092.5 L 474 1093.5 L 478 1123.5 L 488 1167.5 L 499 1203 L 494.5 1205 L 426.5 1257 L 185.5 1445 L 160 1391.5 L 137 1332.5 L 117 1268.5 L 105 1219.5 L 95 1164.5 L 93 1143.5 L 91 1135.5 L 91 1127.5 L 90 1126.5 L 89 1107.5 L 88 1106.5 L 87 1080.5 L 86 1079.5 L 86 1059.5 L 85 1058.5 L 85 989.5 L 86 988.5 L 86 968.5 L 87 967.5 L 87 953.5 L 88 952.5 L 89 930.5 L 90 929.5 L 90 921.5 L 91 920.5 L 91 912.5 L 93 904.5 L 95 883.5 L 105 828.5 L 114 790.5 L 127 745.5 L 145 693.5 L 168 638.5 L 185.5 603 Z " /><path fill="rgb(49,169,82)" stroke="rgb(49,169,82)" stroke-width="1" opacity="0.5137254901960784" d="M 502.5 1214 L 505 1220.5 L 504 1220.5 L 502.5 1214 Z " /><path fill="rgb(49,169,82)" stroke="rgb(49,169,82)" stroke-width="1" opacity="0.5137254901960784" d="M 505.5 1222 L 510 1233.5 L 509 1233.5 L 505.5 1222 Z " /><path fill="rgb(49,169,82)" stroke="rgb(49,169,82)" stroke-width="1" opacity="0.5137254901960784" d="M 510.5 1235 L 515 1245.5 L 514 1245.5 L 510.5 1235 Z " /><path fill="rgb(49,169,82)" stroke="rgb(49,169,82)" stroke-width="1" opacity="0.5137254901960784" d="M 515.5 1247 L 519 1254.5 L 518 1254.5 L 515.5 1247 Z " /><path fill="rgb(49,169,82)" stroke="rgb(49,169,82)" stroke-width="1" opacity="0.5137254901960784" d="M 519.5 1256 L 524 1265.5 L 523 1265.5 L 519 1257.5 L 519.5 1256 Z " /><path fill="rgb(49,169,82)" stroke="rgb(49,169,82)" stroke-width="1" opacity="0.5137254901960784" d="M 526.5 1271 L 533 1283.5 L 531 1282.5 L 526 1272.5 L 526.5 1271 Z " /><path fill="rgb(49,169,82)" stroke="rgb(49,169,82)" stroke-width="1" opacity="0.5137254901960784" d="M 534.5 1287 L 541 1298.5 L 539 1297.5 L 534.5 1287 Z " /><path fill="rgb(49,169,82)" stroke="rgb(49,169,82)" stroke-width="1" opacity="0.5137254901960784" d="M 541.5 1300 L 545 1305.5 L 543 1304.5 L 541.5 1300 Z " /><path fill="rgb(49,169,82)" stroke="rgb(49,169,82)" stroke-width="1" opacity="0.5137254901960784" d="M 545.5 1307 Q 587.5 1380 646.5 1436 Q 686.3 1474.2 734 1504.5 L 732.5 1504 Q 672.3 1466.2 625 1415.5 Q 578.3 1367 545.5 1307 Z " /><path fill="rgb(49,169,82)" stroke="rgb(49,169,82)" stroke-width="1" opacity="0.5137254901960784" d="M 186.5 1446 L 192 1456.5 L 190 1455.5 L 186 1447.5 L 186.5 1446 Z " /><path fill="rgb(49,169,82)" stroke="rgb(49,169,82)" stroke-width="1" opacity="0.5137254901960784" d="M 193.5 1460 L 200 1471.5 L 198 1470.5 L 193.5 1460 Z " /><path fill="rgb(49,169,82)" stroke="rgb(49,169,82)" stroke-width="1" opacity="0.5137254901960784" d="M 200.5 1473 L 205 1480.5 L 203 1479.5 L 200.5 1473 Z " /><path fill="rgb(49,169,82)" stroke="rgb(49,169,82)" stroke-width="1" opacity="0.5137254901960784" d="M 205.5 1482 L 235 1530.5 L 233 1529.5 L 212 1495.5 L 205.5 1482 Z " /><path fill="rgb(49,169,82)" stroke="rgb(49,169,82)" stroke-width="1" opacity="0.5137254901960784" d="M 1339.5 1499 L 1341 1499.5 L 1298.5 1525 L 1299.5 1523 Q 1321.5 1513 1339.5 1499 Z " /><path fill="rgb(49,169,82)" stroke="rgb(49,169,82)" stroke-width="1" opacity="0.5137254901960784" d="M 735.5 1505 L 742 1509.5 L 740.5 1509 Q 735.9 1507.8 735.5 1505 Z " /><path fill="rgb(49,169,82)" stroke="rgb(49,169,82)" stroke-width="1" opacity="0.5137254901960784" d="M 743.5 1510 L 747 1512.5 L 745.5 1512 L 743.5 1510 Z " /><path fill="rgb(49,169,82)" stroke="rgb(49,169,82)" stroke-width="1" opacity="0.5137254901960784" d="M 748.5 1513 L 759 1519.5 L 757.5 1519 L 749.5 1515 L 748.5 1513 Z " /><path fill="rgb(49,169,82)" stroke="rgb(49,169,82)" stroke-width="1" opacity="0.5137254901960784" d="M 760.5 1520 L 770 1525.5 L 768.5 1525 L 761.5 1522 L 760.5 1520 Z " /><path fill="rgb(49,169,82)" stroke="rgb(49,169,82)" stroke-width="1" opacity="0.5137254901960784" d="M 1296.5 1525 L 1295.5 1527 L 1274.5 1537 L 1274.5 1536 L 1296.5 1525 Z " /><path fill="rgb(49,169,82)" stroke="rgb(49,169,82)" stroke-width="1" opacity="0.5137254901960784" d="M 773.5 1527 L 794 1537.5 L 792.5 1538 L 774.5 1529 L 773.5 1527 Z " /><path fill="rgb(49,169,82)" stroke="rgb(49,169,82)" stroke-width="1" opacity="0.5137254901960784" d="M 235.5 1532 Q 295.9 1625.6 374.5 1701 Q 441.9 1766.1 523 1817.5 L 521.5 1817 Q 423 1755 345 1672.5 Q 312.3 1638.2 283 1600.5 L 250 1555.5 L 235.5 1532 Z " /><path fill="rgb(49,169,82)" stroke="rgb(49,169,82)" stroke-width="1" opacity="0.5137254901960784" d="M 1269.5 1538 L 1271 1538.5 L 1263.5 1542 L 1263.5 1541 L 1269.5 1538 Z " /><path fill="rgb(49,169,82)" stroke="rgb(49,169,82)" stroke-width="1" opacity="0.5137254901960784" d="M 797.5 1539 L 805 1542.5 L 803.5 1543 L 797.5 1540 L 797.5 1539 Z " /><path fill="rgb(49,169,82)" stroke="rgb(49,169,82)" stroke-width="1" opacity="0.5137254901960784" d="M 1260.5 1542 L 1262 1542.5 L 1249.5 1548 L 1249.5 1547 L 1260.5 1542 Z " /><path fill="rgb(49,169,82)" stroke="rgb(49,169,82)" stroke-width="1" opacity="0.5137254901960784" d="M 808.5 1544 L 814 1546.5 L 812.5 1547 L 808.5 1545 L 808.5 1544 Z " /><path fill="rgb(49,169,82)" stroke="rgb(49,169,82)" stroke-width="1" opacity="0.5137254901960784" d="M 815.5 1547 L 834 1554.5 L 832.5 1555 L 815.5 1548 L 815.5 1547 Z " /><path fill="rgb(49,169,82)" stroke="rgb(49,169,82)" stroke-width="1" opacity="0.5137254901960784" d="M 1246.5 1548 L 1248 1548.5 L 1244.5 1550 L 1244.5 1549 L 1246.5 1548 Z " /><path fill="rgb(49,169,82)" stroke="rgb(49,169,82)" stroke-width="1" opacity="0.5137254901960784" d="M 1241.5 1550 L 1243 1550.5 L 1236.5 1553 L 1236.5 1552 L 1241.5 1550 Z " /><path fill="rgb(49,169,82)" stroke="rgb(49,169,82)" stroke-width="1" opacity="0.5137254901960784" d="M 1233.5 1553 L 1235 1553.5 L 1228.5 1556 L 1228.5 1555 L 1233.5 1553 Z " /><path fill="rgb(49,169,82)" stroke="rgb(49,169,82)" stroke-width="1" opacity="0.5137254901960784" d="M 835.5 1555 L 842 1557.5 L 840.5 1558 L 835.5 1556 L 835.5 1555 Z " /><path fill="rgb(49,169,82)" stroke="rgb(49,169,82)" stroke-width="1" opacity="0.5137254901960784" d="M 1219.5 1558 L 1221 1558.5 L 1213.5 1561 L 1213.5 1560 L 1219.5 1558 Z " /><path fill="rgb(49,169,82)" stroke="rgb(49,169,82)" stroke-width="1" opacity="0.5137254901960784" d="M 846.5 1559 L 851 1560.5 L 848.5 1561 L 846.5 1559 Z " /><path fill="rgb(49,169,82)" stroke="rgb(49,169,82)" stroke-width="1" opacity="0.5137254901960784" d="M 852.5 1561 L 857 1562.5 L 854.5 1563 L 852.5 1561 Z " /><path fill="rgb(49,169,82)" stroke="rgb(49,169,82)" stroke-width="1" opacity="0.5137254901960784" d="M 1203.5 1563 L 1206 1563.5 L 1197.5 1566 L 1197.5 1565 L 1203.5 1563 Z " /><path fill="rgb(49,169,82)" stroke="rgb(49,169,82)" stroke-width="1" opacity="0.5137254901960784" d="M 867.5 1566 L 873 1567.5 L 870.5 1568 L 867.5 1567 L 867.5 1566 Z " /><path fill="rgb(49,169,82)" stroke="rgb(49,169,82)" stroke-width="1" opacity="0.5137254901960784" d="M 1193.5 1566 L 1196 1566.5 L 1190.5 1568 L 1190.5 1567 L 1193.5 1566 Z " /><path fill="rgb(49,169,82)" stroke="rgb(49,169,82)" stroke-width="1" opacity="0.5137254901960784" d="M 1186.5 1568 L 1189 1568.5 L 1179.5 1571 L 1179.5 1570 L 1186.5 1568 Z " /><path fill="rgb(49,169,82)" stroke="rgb(49,169,82)" stroke-width="1" opacity="0.5137254901960784" d="M 877.5 1569 L 880 1569.5 L 877.5 1570 L 877.5 1569 Z " /><path fill="rgb(49,169,82)" stroke="rgb(49,169,82)" stroke-width="1" opacity="0.5137254901960784" d="M 881.5 1570 L 887 1571.5 L 884.5 1572 L 881.5 1571 L 881.5 1570 Z " /><path fill="rgb(49,169,82)" stroke="rgb(49,169,82)" stroke-width="1" opacity="0.5137254901960784" d="M 1175.5 1571 L 1178 1571.5 L 1175.5 1572 L 1175.5 1571 Z " /><path fill="rgb(49,169,82)" stroke="rgb(49,169,82)" stroke-width="1" opacity="0.5137254901960784" d="M 888.5 1572 L 891 1572.5 L 888.5 1573 L 888.5 1572 Z " /><path fill="rgb(49,169,82)" stroke="rgb(49,169,82)" stroke-width="1" opacity="0.5137254901960784" d="M 1170.5 1572 L 1174 1572.5 L 1166.5 1574 L 1166.5 1573 L 1170.5 1572 Z " /><path fill="rgb(49,169,82)" stroke="rgb(49,169,82)" stroke-width="1" opacity="0.5137254901960784" d="M 892.5 1573 L 895 1573.5 L 892.5 1574 L 892.5 1573 Z " /><path fill="rgb(49,169,82)" stroke="rgb(49,169,82)" stroke-width="1" opacity="0.5137254901960784" d="M 896.5 1574 L 899 1574.5 L 896.5 1575 L 896.5 1574 Z " /><path fill="rgb(49,169,82)" stroke="rgb(49,169,82)" stroke-width="1" opacity="0.5137254901960784" d="M 1162.5 1574 L 1165 1574.5 L 1162.5 1575 L 1162.5 1574 Z " /><path fill="rgb(49,169,82)" stroke="rgb(49,169,82)" stroke-width="1" opacity="0.5137254901960784" d="M 900.5 1575 L 903 1575.5 L 900.5 1576 L 900.5 1575 Z " /><path fill="rgb(49,169,82)" stroke="rgb(49,169,82)" stroke-width="1" opacity="0.5137254901960784" d="M 1157.5 1575 L 1161 1575.5 L 1157.5 1576 L 1157.5 1575 Z " /><path fill="rgb(49,169,82)" stroke="rgb(49,169,82)" stroke-width="1" opacity="0.5137254901960784" d="M 905.5 1576 L 908 1576.5 L 905.5 1577 L 905.5 1576 Z " /><path fill="rgb(49,169,82)" stroke="rgb(49,169,82)" stroke-width="1" opacity="0.5137254901960784" d="M 1152.5 1576 L 1156 1576.5 L 1148.5 1578 L 1148.5 1577 L 1152.5 1576 Z " /><path fill="rgb(49,169,82)" stroke="rgb(49,169,82)" stroke-width="1" opacity="0.5137254901960784" d="M 909.5 1577 L 912 1577.5 L 909.5 1578 L 909.5 1577 Z " /><path fill="rgb(49,169,82)" stroke="rgb(49,169,82)" stroke-width="1" opacity="0.5137254901960784" d="M 913.5 1578 L 917 1578.5 L 913.5 1579 L 913.5 1578 Z " /><path fill="rgb(49,169,82)" stroke="rgb(49,169,82)" stroke-width="1" opacity="0.5137254901960784" d="M 1142.5 1578 L 1147 1578.5 L 1142.5 1579 L 1142.5 1578 Z " /><path fill="rgb(49,169,82)" stroke="rgb(49,169,82)" stroke-width="1" opacity="0.5137254901960784" d="M 919.5 1579 L 922 1579.5 L 919.5 1580 L 919.5 1579 Z " /><path fill="rgb(49,169,82)" stroke="rgb(49,169,82)" stroke-width="1" opacity="0.5137254901960784" d="M 1137.5 1579 L 1141 1579.5 L 1137.5 1580 L 1137.5 1579 Z " /><path fill="rgb(49,169,82)" stroke="rgb(49,169,82)" stroke-width="1" opacity="0.5137254901960784" d="M 923.5 1580 L 928 1580.5 L 923.5 1581 L 923.5 1580 Z " /><path fill="rgb(49,169,82)" stroke="rgb(49,169,82)" stroke-width="1" opacity="0.5137254901960784" d="M 1131.5 1580 L 1136 1580.5 L 1131.5 1581 L 1131.5 1580 Z " /><path fill="rgb(49,169,82)" stroke="rgb(49,169,82)" stroke-width="1" opacity="0.5137254901960784" d="M 929.5 1581 L 933 1581.5 L 929.5 1582 L 929.5 1581 Z " /><path fill="rgb(49,169,82)" stroke="rgb(49,169,82)" stroke-width="1" opacity="0.5137254901960784" d="M 1125.5 1581 L 1130 1581.5 L 1125.5 1582 L 1125.5 1581 Z " /><path fill="rgb(49,169,82)" stroke="rgb(49,169,82)" stroke-width="1" opacity="0.5137254901960784" d="M 934.5 1582 L 939 1582.5 L 934.5 1583 L 934.5 1582 Z " /><path fill="rgb(49,169,82)" stroke="rgb(49,169,82)" stroke-width="1" opacity="0.5137254901960784" d="M 1118.5 1582 L 1124 1582.5 L 1118.5 1583 L 1118.5 1582 Z " /><path fill="rgb(49,169,82)" stroke="rgb(49,169,82)" stroke-width="1" opacity="0.5137254901960784" d="M 941.5 1583 L 946 1583.5 L 941.5 1584 L 941.5 1583 Z " /><path fill="rgb(49,169,82)" stroke="rgb(49,169,82)" stroke-width="1" opacity="0.5137254901960784" d="M 1111.5 1583 L 1117 1583.5 L 1111.5 1584 L 1111.5 1583 Z " /><path fill="rgb(49,169,82)" stroke="rgb(49,169,82)" stroke-width="1" opacity="0.5137254901960784" d="M 947.5 1584 L 953 1584.5 L 947.5 1585 L 947.5 1584 Z " /><path fill="rgb(49,169,82)" stroke="rgb(49,169,82)" stroke-width="1" opacity="0.5137254901960784" d="M 1104.5 1584 L 1110 1584.5 L 1104.5 1585 L 1104.5 1584 Z " /><path fill="rgb(49,169,82)" stroke="rgb(49,169,82)" stroke-width="1" opacity="0.5137254901960784" d="M 954.5 1585 L 961 1585.5 L 954.5 1586 L 954.5 1585 Z " /><path fill="rgb(49,169,82)" stroke="rgb(49,169,82)" stroke-width="1" opacity="0.5137254901960784" d="M 1095.5 1585 L 1102 1585.5 L 1095.5 1586 L 1095.5 1585 Z " /><path fill="rgb(49,169,82)" stroke="rgb(49,169,82)" stroke-width="1" opacity="0.5137254901960784" d="M 963.5 1586 L 970 1586.5 L 963.5 1587 L 963.5 1586 Z " /><path fill="rgb(49,169,82)" stroke="rgb(49,169,82)" stroke-width="1" opacity="0.5137254901960784" d="M 1085.5 1586 L 1093 1586.5 L 1085.5 1587 L 1085.5 1586 Z " /><path fill="rgb(49,169,82)" stroke="rgb(49,169,82)" stroke-width="1" opacity="0.5137254901960784" d="M 972.5 1587 L 981 1587.5 L 972.5 1588 L 972.5 1587 Z " /><path fill="rgb(49,169,82)" stroke="rgb(49,169,82)" stroke-width="1" opacity="0.5137254901960784" d="M 1073.5 1587 L 1082 1587.5 L 1073.5 1588 L 1073.5 1587 Z " /><path fill="rgb(49,169,82)" stroke="rgb(49,169,82)" stroke-width="1" opacity="0.5137254901960784" d="M 984.5 1588 L 996 1588.5 L 984.5 1589 L 984.5 1588 Z " /><path fill="rgb(49,169,82)" stroke="rgb(49,169,82)" stroke-width="1" opacity="0.5137254901960784" d="M 1056.5 1588 L 1069 1588.5 L 1056.5 1589 L 1056.5 1588 Z " /><path fill="rgb(49,169,82)" stroke="rgb(49,169,82)" stroke-width="1" opacity="0.5137254901960784" d="M 1001.5 1589 L 1050 1589.5 L 1001.5 1590 L 1001.5 1589 Z " /><path fill="rgb(49,169,82)" stroke="rgb(49,169,82)" stroke-width="1" opacity="0.5137254901960784" d="M 1644.5 1736 L 1638.5 1743 Q 1599.1 1778.6 1554.5 1809 L 1556.5 1806 Q 1604.1 1774.6 1644.5 1736 Z " /><path fill="rgb(49,169,82)" stroke="rgb(49,169,82)" stroke-width="1" opacity="0.5137254901960784" d="M 1552.5 1809 L 1550.5 1812 L 1500.5 1843 L 1501.5 1841 Q 1528.6 1826.6 1552.5 1809 Z " /><path fill="rgb(49,169,82)" stroke="rgb(49,169,82)" stroke-width="1" opacity="0.5137254901960784" d="M 524.5 1818 L 531 1822.5 L 529.5 1822 Q 524.9 1820.8 524.5 1818 Z " /><path fill="rgb(49,169,82)" stroke="rgb(49,169,82)" stroke-width="1" opacity="0.5137254901960784" d="M 532.5 1823 L 563 1841.5 L 561.5 1841 L 536.5 1827 L 532.5 1823 Z " /><path fill="rgb(49,169,82)" stroke="rgb(49,169,82)" stroke-width="1" opacity="0.5137254901960784" d="M 564.5 1842 L 572 1846.5 L 570.5 1846 Q 564.9 1845.2 564.5 1842 Z " /><path fill="rgb(49,169,82)" stroke="rgb(49,169,82)" stroke-width="1" opacity="0.5137254901960784" d="M 1498.5 1843 L 1497.5 1845 L 1484.5 1852 L 1485.5 1850 L 1498.5 1843 Z " /><path fill="rgb(49,169,82)" stroke="rgb(49,169,82)" stroke-width="1" opacity="0.5137254901960784" d="M 573.5 1847 L 585 1853.5 L 583.5 1853 L 574.5 1849 L 573.5 1847 Z " /><path fill="rgb(49,169,82)" stroke="rgb(49,169,82)" stroke-width="1" opacity="0.5137254901960784" d="M 1482.5 1852 L 1481.5 1854 L 1469.5 1860 L 1470.5 1858 L 1482.5 1852 Z " /><path fill="rgb(49,169,82)" stroke="rgb(49,169,82)" stroke-width="1" opacity="0.5137254901960784" d="M 586.5 1854 L 625 1873.5 L 623.5 1874 L 587.5 1856 L 586.5 1854 Z " /><path fill="rgb(49,169,82)" stroke="rgb(49,169,82)" stroke-width="1" opacity="0.5137254901960784" d="M 1465.5 1861 L 1464.5 1863 L 1445.5 1872 L 1445.5 1871 L 1465.5 1861 Z " /><path fill="rgb(49,169,82)" stroke="rgb(49,169,82)" stroke-width="1" opacity="0.5137254901960784" d="M 1440.5 1873 L 1442 1873.5 L 1430.5 1879 L 1430.5 1878 L 1440.5 1873 Z " /><path fill="rgb(49,169,82)" stroke="rgb(49,169,82)" stroke-width="1" opacity="0.5137254901960784" d="M 628.5 1875 L 638 1879.5 L 636.5 1880 L 628.5 1876 L 628.5 1875 Z " /><path fill="rgb(49,169,82)" stroke="rgb(49,169,82)" stroke-width="1" opacity="0.5137254901960784" d="M 1427.5 1879 L 1429 1879.5 L 1421.5 1883 L 1421.5 1882 L 1427.5 1879 Z " /><path fill="rgb(49,169,82)" stroke="rgb(49,169,82)" stroke-width="1" opacity="0.5137254901960784" d="M 639.5 1880 L 647 1883.5 L 645.5 1884 L 639.5 1881 L 639.5 1880 Z " /><path fill="rgb(49,169,82)" stroke="rgb(49,169,82)" stroke-width="1" opacity="0.5137254901960784" d="M 648.5 1884 L 656 1887.5 L 654.5 1888 L 648.5 1885 L 648.5 1884 Z " /><path fill="rgb(49,169,82)" stroke="rgb(49,169,82)" stroke-width="1" opacity="0.5137254901960784" d="M 1416.5 1884 L 1418 1884.5 L 1412.5 1887 L 1412.5 1886 L 1416.5 1884 Z " /><path fill="rgb(49,169,82)" stroke="rgb(49,169,82)" stroke-width="1" opacity="0.5137254901960784" d="M 1409.5 1887 L 1411 1887.5 L 1405.5 1890 L 1405.5 1889 L 1409.5 1887 Z " /><path fill="rgb(49,169,82)" stroke="rgb(49,169,82)" stroke-width="1" opacity="0.5137254901960784" d="M 657.5 1888 L 661 1889.5 L 659.5 1890 L 657.5 1888 Z " /><path fill="rgb(49,169,82)" stroke="rgb(49,169,82)" stroke-width="1" opacity="0.5137254901960784" d="M 662.5 1890 L 668 1892.5 L 666.5 1893 L 662.5 1891 L 662.5 1890 Z " /><path fill="rgb(49,169,82)" stroke="rgb(49,169,82)" stroke-width="1" opacity="0.5137254901960784" d="M 1402.5 1890 L 1404 1890.5 L 1400.5 1892 L 1400.5 1891 L 1402.5 1890 Z " /><path fill="rgb(49,169,82)" stroke="rgb(49,169,82)" stroke-width="1" opacity="0.5137254901960784" d="M 1397.5 1892 L 1399 1892.5 L 1393.5 1895 L 1393.5 1894 L 1397.5 1892 Z " /><path fill="rgb(49,169,82)" stroke="rgb(49,169,82)" stroke-width="1" opacity="0.5137254901960784" d="M 669.5 1893 L 673 1894.5 L 671.5 1895 L 669.5 1893 Z " /><path fill="rgb(49,169,82)" stroke="rgb(49,169,82)" stroke-width="1" opacity="0.5137254901960784" d="M 674.5 1895 L 678 1896.5 L 676.5 1897 L 674.5 1895 Z " /><path fill="rgb(49,169,82)" stroke="rgb(49,169,82)" stroke-width="1" opacity="0.5137254901960784" d="M 1390.5 1895 L 1392 1895.5 L 1385.5 1898 L 1385.5 1897 L 1390.5 1895 Z " /><path fill="rgb(49,169,82)" stroke="rgb(49,169,82)" stroke-width="1" opacity="0.5137254901960784" d="M 679.5 1897 L 683 1898.5 L 681.5 1899 L 679.5 1897 Z " /><path fill="rgb(49,169,82)" stroke="rgb(49,169,82)" stroke-width="1" opacity="0.5137254901960784" d="M 1382.5 1898 L 1384 1898.5 L 1380.5 1900 L 1380.5 1899 L 1382.5 1898 Z " /><path fill="rgb(49,169,82)" stroke="rgb(49,169,82)" stroke-width="1" opacity="0.5137254901960784" d="M 684.5 1899 L 691 1901.5 L 689.5 1902 L 684.5 1900 L 684.5 1899 Z " /><path fill="rgb(49,169,82)" stroke="rgb(49,169,82)" stroke-width="1" opacity="0.5137254901960784" d="M 1377.5 1900 L 1379 1900.5 L 1375.5 1902 L 1375.5 1901 L 1377.5 1900 Z " /><path fill="rgb(49,169,82)" stroke="rgb(49,169,82)" stroke-width="1" opacity="0.5137254901960784" d="M 692.5 1902 L 696 1903.5 L 694.5 1904 L 692.5 1902 Z " /><path fill="rgb(49,169,82)" stroke="rgb(49,169,82)" stroke-width="1" opacity="0.5137254901960784" d="M 1372.5 1902 L 1374 1902.5 L 1364.5 1906 L 1364.5 1905 L 1372.5 1902 Z " /><path fill="rgb(49,169,82)" stroke="rgb(49,169,82)" stroke-width="1" opacity="0.5137254901960784" d="M 700.5 1905 L 707 1907.5 L 705.5 1908 L 700.5 1906 L 700.5 1905 Z " /><path fill="rgb(49,169,82)" stroke="rgb(49,169,82)" stroke-width="1" opacity="0.5137254901960784" d="M 1358.5 1907 L 1360 1907.5 L 1350.5 1911 L 1350.5 1910 L 1358.5 1907 Z " /><path fill="rgb(49,169,82)" stroke="rgb(49,169,82)" stroke-width="1" opacity="0.5137254901960784" d="M 711.5 1909 L 746 1920.5 L 743.5 1921 L 713.5 1911 L 711.5 1909 Z " /><path fill="rgb(49,169,82)" stroke="rgb(49,169,82)" stroke-width="1" opacity="0.5137254901960784" d="M 1334.5 1915 L 1337 1915.5 L 1325.5 1919 L 1325.5 1918 L 1334.5 1915 Z " /><path fill="rgb(49,169,82)" stroke="rgb(49,169,82)" stroke-width="1" opacity="0.5137254901960784" d="M 1318.5 1920 L 1321 1920.5 L 1312.5 1923 L 1312.5 1922 L 1318.5 1920 Z " /><path fill="rgb(49,169,82)" stroke="rgb(49,169,82)" stroke-width="1" opacity="0.5137254901960784" d="M 747.5 1921 L 756 1923.5 L 753.5 1924 L 747.5 1922 L 747.5 1921 Z " /><path fill="rgb(49,169,82)" stroke="rgb(49,169,82)" stroke-width="1" opacity="0.5137254901960784" d="M 1308.5 1923 L 1311 1923.5 L 1305.5 1925 L 1305.5 1924 L 1308.5 1923 Z " /><path fill="rgb(49,169,82)" stroke="rgb(49,169,82)" stroke-width="1" opacity="0.5137254901960784" d="M 760.5 1925 L 766 1926.5 L 763.5 1927 L 760.5 1926 L 760.5 1925 Z " /><path fill="rgb(49,169,82)" stroke="rgb(49,169,82)" stroke-width="1" opacity="0.5137254901960784" d="M 1301.5 1925 L 1304 1925.5 L 1298.5 1927 L 1298.5 1926 L 1301.5 1925 Z " /><path fill="rgb(49,169,82)" stroke="rgb(49,169,82)" stroke-width="1" opacity="0.5137254901960784" d="M 767.5 1927 L 770 1927.5 L 767.5 1928 L 767.5 1927 Z " /><path fill="rgb(49,169,82)" stroke="rgb(49,169,82)" stroke-width="1" opacity="0.5137254901960784" d="M 1294.5 1927 L 1297 1927.5 L 1294.5 1928 L 1294.5 1927 Z " /><path fill="rgb(49,169,82)" stroke="rgb(49,169,82)" stroke-width="1" opacity="0.5137254901960784" d="M 774.5 1929 L 777 1929.5 L 774.5 1930 L 774.5 1929 Z " /><path fill="rgb(49,169,82)" stroke="rgb(49,169,82)" stroke-width="1" opacity="0.5137254901960784" d="M 1287.5 1929 L 1290 1929.5 L 1287.5 1930 L 1287.5 1929 Z " /><path fill="rgb(49,169,82)" stroke="rgb(49,169,82)" stroke-width="1" opacity="0.5137254901960784" d="M 778.5 1930 L 781 1930.5 L 778.5 1931 L 778.5 1930 Z " /><path fill="rgb(49,169,82)" stroke="rgb(49,169,82)" stroke-width="1" opacity="0.5137254901960784" d="M 1283.5 1930 L 1286 1930.5 L 1283.5 1931 L 1283.5 1930 Z " /><path fill="rgb(49,169,82)" stroke="rgb(49,169,82)" stroke-width="1" opacity="0.5137254901960784" d="M 782.5 1931 L 792 1933.5 L 789.5 1934 L 782.5 1932 L 782.5 1931 Z " /><path fill="rgb(49,169,82)" stroke="rgb(49,169,82)" stroke-width="1" opacity="0.5137254901960784" d="M 1279.5 1931 L 1282 1931.5 L 1279.5 1932 L 1279.5 1931 Z " /><path fill="rgb(49,169,82)" stroke="rgb(49,169,82)" stroke-width="1" opacity="0.5137254901960784" d="M 1275.5 1932 L 1278 1932.5 L 1275.5 1933 L 1275.5 1932 Z " /><path fill="rgb(49,169,82)" stroke="rgb(49,169,82)" stroke-width="1" opacity="0.5137254901960784" d="M 1271.5 1933 L 1274 1933.5 L 1271.5 1934 L 1271.5 1933 Z " /><path fill="rgb(49,169,82)" stroke="rgb(49,169,82)" stroke-width="1" opacity="0.5137254901960784" d="M 793.5 1934 L 796 1934.5 L 793.5 1935 L 793.5 1934 Z " /><path fill="rgb(49,169,82)" stroke="rgb(49,169,82)" stroke-width="1" opacity="0.5137254901960784" d="M 1267.5 1934 L 1270 1934.5 L 1267.5 1935 L 1267.5 1934 Z " /><path fill="rgb(49,169,82)" stroke="rgb(49,169,82)" stroke-width="1" opacity="0.5137254901960784" d="M 797.5 1935 L 800 1935.5 L 797.5 1936 L 797.5 1935 Z " /><path fill="rgb(49,169,82)" stroke="rgb(49,169,82)" stroke-width="1" opacity="0.5137254901960784" d="M 1263.5 1935 L 1266 1935.5 L 1263.5 1936 L 1263.5 1935 Z " /><path fill="rgb(49,169,82)" stroke="rgb(49,169,82)" stroke-width="1" opacity="0.5137254901960784" d="M 801.5 1936 L 813 1938.5 L 809.5 1939 L 801.5 1937 L 801.5 1936 Z " /><path fill="rgb(49,169,82)" stroke="rgb(49,169,82)" stroke-width="1" opacity="0.5137254901960784" d="M 1258.5 1936 L 1262 1936.5 L 1258.5 1937 L 1258.5 1936 Z " /><path fill="rgb(49,169,82)" stroke="rgb(49,169,82)" stroke-width="1" opacity="0.5137254901960784" d="M 1254.5 1937 L 1257 1937.5 L 1254.5 1938 L 1254.5 1937 Z " /><path fill="rgb(49,169,82)" stroke="rgb(49,169,82)" stroke-width="1" opacity="0.5137254901960784" d="M 1250.5 1938 L 1253 1938.5 L 1250.5 1939 L 1250.5 1938 Z " /><path fill="rgb(49,169,82)" stroke="rgb(49,169,82)" stroke-width="1" opacity="0.5137254901960784" d="M 814.5 1939 L 817 1939.5 L 814.5 1940 L 814.5 1939 Z " /><path fill="rgb(49,169,82)" stroke="rgb(49,169,82)" stroke-width="1" opacity="0.5137254901960784" d="M 1245.5 1939 L 1249 1939.5 L 1245.5 1940 L 1245.5 1939 Z " /><path fill="rgb(49,169,82)" stroke="rgb(49,169,82)" stroke-width="1" opacity="0.5137254901960784" d="M 818.5 1940 L 822 1940.5 L 818.5 1941 L 818.5 1940 Z " /><path fill="rgb(49,169,82)" stroke="rgb(49,169,82)" stroke-width="1" opacity="0.5137254901960784" d="M 1240.5 1940 L 1244 1940.5 L 1240.5 1941 L 1240.5 1940 Z " /><path fill="rgb(49,169,82)" stroke="rgb(49,169,82)" stroke-width="1" opacity="0.5137254901960784" d="M 823.5 1941 L 826 1941.5 L 823.5 1942 L 823.5 1941 Z " /><path fill="rgb(49,169,82)" stroke="rgb(49,169,82)" stroke-width="1" opacity="0.5137254901960784" d="M 1235.5 1941 L 1239 1941.5 L 1235.5 1942 L 1235.5 1941 Z " /><path fill="rgb(49,169,82)" stroke="rgb(49,169,82)" stroke-width="1" opacity="0.5137254901960784" d="M 827.5 1942 L 831 1942.5 L 827.5 1943 L 827.5 1942 Z " /><path fill="rgb(49,169,82)" stroke="rgb(49,169,82)" stroke-width="1" opacity="0.5137254901960784" d="M 1231.5 1942 L 1234 1942.5 L 1231.5 1943 L 1231.5 1942 Z " /><path fill="rgb(49,169,82)" stroke="rgb(49,169,82)" stroke-width="1" opacity="0.5137254901960784" d="M 832.5 1943 L 836 1943.5 L 832.5 1944 L 832.5 1943 Z " /><path fill="rgb(49,169,82)" stroke="rgb(49,169,82)" stroke-width="1" opacity="0.5137254901960784" d="M 1226.5 1943 L 1230 1943.5 L 1226.5 1944 L 1226.5 1943 Z " /><path fill="rgb(49,169,82)" stroke="rgb(49,169,82)" stroke-width="1" opacity="0.5137254901960784" d="M 837.5 1944 L 841 1944.5 L 837.5 1945 L 837.5 1944 Z " /><path fill="rgb(49,169,82)" stroke="rgb(49,169,82)" stroke-width="1" opacity="0.5137254901960784" d="M 1220.5 1944 L 1224 1944.5 L 1220.5 1945 L 1220.5 1944 Z " /><path fill="rgb(49,169,82)" stroke="rgb(49,169,82)" stroke-width="1" opacity="0.5137254901960784" d="M 842.5 1945 L 846 1945.5 L 842.5 1946 L 842.5 1945 Z " /><path fill="rgb(49,169,82)" stroke="rgb(49,169,82)" stroke-width="1" opacity="0.5137254901960784" d="M 1215.5 1945 L 1219 1945.5 L 1215.5 1946 L 1215.5 1945 Z " /><path fill="rgb(49,169,82)" stroke="rgb(49,169,82)" stroke-width="1" opacity="0.5137254901960784" d="M 847.5 1946 L 851 1946.5 L 847.5 1947 L 847.5 1946 Z " /><path fill="rgb(49,169,82)" stroke="rgb(49,169,82)" stroke-width="1" opacity="0.5137254901960784" d="M 1210.5 1946 L 1214 1946.5 L 1210.5 1947 L 1210.5 1946 Z " /><path fill="rgb(49,169,82)" stroke="rgb(49,169,82)" stroke-width="1" opacity="0.5137254901960784" d="M 852.5 1947 L 857 1947.5 L 852.5 1948 L 852.5 1947 Z " /><path fill="rgb(49,169,82)" stroke="rgb(49,169,82)" stroke-width="1" opacity="0.5137254901960784" d="M 1204.5 1947 L 1208 1947.5 L 1204.5 1948 L 1204.5 1947 Z " /><path fill="rgb(49,169,82)" stroke="rgb(49,169,82)" stroke-width="1" opacity="0.5137254901960784" d="M 858.5 1948 L 863 1948.5 L 858.5 1949 L 858.5 1948 Z " /><path fill="rgb(49,169,82)" stroke="rgb(49,169,82)" stroke-width="1" opacity="0.5137254901960784" d="M 1198.5 1948 L 1202 1948.5 L 1198.5 1949 L 1198.5 1948 Z " /><path fill="rgb(49,169,82)" stroke="rgb(49,169,82)" stroke-width="1" opacity="0.5137254901960784" d="M 864.5 1949 L 868 1949.5 L 864.5 1950 L 864.5 1949 Z " /><path fill="rgb(49,169,82)" stroke="rgb(49,169,82)" stroke-width="1" opacity="0.5137254901960784" d="M 1192.5 1949 L 1196 1949.5 L 1192.5 1950 L 1192.5 1949 Z " /><path fill="rgb(49,169,82)" stroke="rgb(49,169,82)" stroke-width="1" opacity="0.5137254901960784" d="M 870.5 1950 L 874 1950.5 L 870.5 1951 L 870.5 1950 Z " /><path fill="rgb(49,169,82)" stroke="rgb(49,169,82)" stroke-width="1" opacity="0.5137254901960784" d="M 1185.5 1950 L 1190 1950.5 L 1185.5 1951 L 1185.5 1950 Z " /><path fill="rgb(49,169,82)" stroke="rgb(49,169,82)" stroke-width="1" opacity="0.5137254901960784" d="M 876.5 1951 L 881 1951.5 L 876.5 1952 L 876.5 1951 Z " /><path fill="rgb(49,169,82)" stroke="rgb(49,169,82)" stroke-width="1" opacity="0.5137254901960784" d="M 1178.5 1951 L 1184 1951.5 L 1178.5 1952 L 1178.5 1951 Z " /><path fill="rgb(49,169,82)" stroke="rgb(49,169,82)" stroke-width="1" opacity="0.5137254901960784" d="M 882.5 1952 L 888 1952.5 L 882.5 1953 L 882.5 1952 Z " /><path fill="rgb(49,169,82)" stroke="rgb(49,169,82)" stroke-width="1" opacity="0.5137254901960784" d="M 1171.5 1952 L 1177 1952.5 L 1171.5 1953 L 1171.5 1952 Z " /><path fill="rgb(49,169,82)" stroke="rgb(49,169,82)" stroke-width="1" opacity="0.5137254901960784" d="M 889.5 1953 L 895 1953.5 L 889.5 1954 L 889.5 1953 Z " /><path fill="rgb(49,169,82)" stroke="rgb(49,169,82)" stroke-width="1" opacity="0.5137254901960784" d="M 1164.5 1953 L 1169 1953.5 L 1164.5 1954 L 1164.5 1953 Z " /><path fill="rgb(49,169,82)" stroke="rgb(49,169,82)" stroke-width="1" opacity="0.5137254901960784" d="M 896.5 1954 L 902 1954.5 L 896.5 1955 L 896.5 1954 Z " /><path fill="rgb(49,169,82)" stroke="rgb(49,169,82)" stroke-width="1" opacity="0.5137254901960784" d="M 1156.5 1954 L 1162 1954.5 L 1156.5 1955 L 1156.5 1954 Z " /><path fill="rgb(49,169,82)" stroke="rgb(49,169,82)" stroke-width="1" opacity="0.5137254901960784" d="M 904.5 1955 L 910 1955.5 L 904.5 1956 L 904.5 1955 Z " /><path fill="rgb(49,169,82)" stroke="rgb(49,169,82)" stroke-width="1" opacity="0.5137254901960784" d="M 1147.5 1955 L 1154 1955.5 L 1147.5 1956 L 1147.5 1955 Z " /><path fill="rgb(49,169,82)" stroke="rgb(49,169,82)" stroke-width="1" opacity="0.5137254901960784" d="M 912.5 1956 L 918 1956.5 L 912.5 1957 L 912.5 1956 Z " /><path fill="rgb(49,169,82)" stroke="rgb(49,169,82)" stroke-width="1" opacity="0.5137254901960784" d="M 1138.5 1956 L 1145 1956.5 L 1138.5 1957 L 1138.5 1956 Z " /><path fill="rgb(49,169,82)" stroke="rgb(49,169,82)" stroke-width="1" opacity="0.5137254901960784" d="M 920.5 1957 L 928 1957.5 L 920.5 1958 L 920.5 1957 Z " /><path fill="rgb(49,169,82)" stroke="rgb(49,169,82)" stroke-width="1" opacity="0.5137254901960784" d="M 1128.5 1957 L 1136 1957.5 L 1128.5 1958 L 1128.5 1957 Z " /><path fill="rgb(49,169,82)" stroke="rgb(49,169,82)" stroke-width="1" opacity="0.5137254901960784" d="M 930.5 1958 L 938 1958.5 L 930.5 1959 L 930.5 1958 Z " /><path fill="rgb(49,169,82)" stroke="rgb(49,169,82)" stroke-width="1" opacity="0.5137254901960784" d="M 1117.5 1958 L 1125 1958.5 L 1117.5 1959 L 1117.5 1958 Z " /><path fill="rgb(49,169,82)" stroke="rgb(49,169,82)" stroke-width="1" opacity="0.5137254901960784" d="M 941.5 1959 L 950 1959.5 L 941.5 1960 L 941.5 1959 Z " /><path fill="rgb(49,169,82)" stroke="rgb(49,169,82)" stroke-width="1" opacity="0.5137254901960784" d="M 1105.5 1959 L 1114 1959.5 L 1105.5 1960 L 1105.5 1959 Z " /><path fill="rgb(49,169,82)" stroke="rgb(49,169,82)" stroke-width="1" opacity="0.5137254901960784" d="M 953.5 1960 L 964 1960.5 L 953.5 1961 L 953.5 1960 Z " /><path fill="rgb(49,169,82)" stroke="rgb(49,169,82)" stroke-width="1" opacity="0.5137254901960784" d="M 1089.5 1960 L 1101 1960.5 L 1089.5 1961 L 1089.5 1960 Z " /><path fill="rgb(49,169,82)" stroke="rgb(49,169,82)" stroke-width="1" opacity="0.5137254901960784" d="M 968.5 1961 L 983 1961.5 L 968.5 1962 L 968.5 1961 Z " /><path fill="rgb(49,169,82)" stroke="rgb(49,169,82)" stroke-width="1" opacity="0.5137254901960784" d="M 1069.5 1961 L 1084 1961.5 L 1069.5 1962 L 1069.5 1961 Z " /><path fill="rgb(49,169,82)" stroke="rgb(49,169,82)" stroke-width="1" opacity="0.5137254901960784" d="M 989.5 1962 L 1060 1962.5 L 989.5 1963 L 989.5 1962 Z " /><path fill="rgb(63,134,243)" stroke="rgb(63,134,243)" stroke-width="1" opacity="0.996078431372549" d="M 1024 853 L 1908.5 853 Q 1909.6 853.1 1909 858.5 L 1916 897.5 L 1919 929.5 L 1920 930.5 L 1920 939.5 L 1921 940.5 L 1921 950.5 L 1922 951.5 L 1923 977.5 L 1924 978.5 L 1924 995.5 L 1925 996.5 L 1926 1060.5 L 1925 1061.5 L 1924 1115.5 L 1923 1116.5 L 1921 1153.5 L 1920 1154.5 L 1920 1163.5 L 1919 1164.5 L 1919 1172.5 L 1918 1173.5 L 1915 1204.5 L 1914 1205.5 L 1914 1211.5 L 1907 1247.5 L 1907 1252.5 L 1899 1290.5 L 1881 1357.5 Q 1866.8 1403.3 1849 1445.5 Q 1775.8 1615.8 1649.5 1733 L 1645.5 1736 L 1341 1499.5 L 1342.5 1497 Q 1388.3 1467.3 1424 1427.5 Q 1467.9 1379.9 1497 1317.5 L 1516 1268.5 L 1526 1231.5 L 1528 1217 L 1024 1217 L 1024 853 Z " /><path fill="rgb(49,168,82)" stroke="rgb(49,168,82)" stroke-width="1" opacity="1" d="M 497.5 1203 L 512 1241.5 L 526 1272.5 L 558 1329.5 Q 597.5 1391 649.5 1440 Q 724.7 1511.8 829.5 1554 L 884.5 1572 L 934.5 1583 L 940.5 1583 L 954.5 1586 L 962.5 1586 L 963.5 1587 L 971.5 1587 L 972.5 1588 L 983.5 1588 L 984.5 1589 L 1000.5 1589 L 1001.5 1590 L 1049.5 1590 L 1050.5 1589 L 1068.5 1589 L 1069.5 1588 L 1092.5 1587 L 1093.5 1586 L 1101.5 1586 L 1102.5 1585 L 1123.5 1583 L 1169.5 1574 L 1199.5 1566 Q 1239.9 1553.9 1275.5 1537 L 1306.5 1521 L 1339.5 1500 L 1341.5 1500 L 1645 1735.5 Q 1523.9 1849.9 1349.5 1911 L 1311.5 1923 L 1262.5 1936 L 1209.5 1947 L 1164.5 1953 L 1163.5 1954 L 1138.5 1956 L 1137.5 1957 L 1128.5 1957 L 1127.5 1958 L 1117.5 1958 L 1116.5 1959 L 1089.5 1960 L 1088.5 1961 L 1069.5 1961 L 1068.5 1962 L 983.5 1962 L 982.5 1961 L 950.5 1960 L 949.5 1959 L 938.5 1959 L 937.5 1958 L 928.5 1958 L 927.5 1957 L 902.5 1955 L 901.5 1954 L 895.5 1954 L 894.5 1953 L 888.5 1953 L 887.5 1952 L 881.5 1952 L 880.5 1951 L 874.5 1951 L 862.5 1948 L 851.5 1947 L 817.5 1940 L 804.5 1936 L 800.5 1936 L 759.5 1925 L 707.5 1908 L 638.5 1880 Q 470.2 1802.3 350 1676.5 Q 251.7 1576 186 1444 L 497.5 1203 Z " /></svg>